Coordinates
version=1
nRows=8
nColumns=36
inDegrees=yes

Units are S.I. units (second, meters, Newtons, ...)
If the header above contains a line with 'inDegrees', this indicates whether rotational values are in degrees (yes) or radians (no).

endheader
time	pelvis_tilt	pelvis_list	pelvis_rotation	pelvis_tx	pelvis_ty	pelvis_tz	hip_flexion_r	hip_adduction_r	hip_rotation_r	knee_angle_r	knee_angle_r_beta	ankle_angle_r	subtalar_angle_r	mtp_angle_r	hip_flexion_l	hip_adduction_l	hip_rotation_l	knee_angle_l	knee_angle_l_beta	ankle_angle_l	subtalar_angle_l	mtp_angle_l	lumbar_extension	lumbar_bending	lumbar_rotation	arm_flex_r	arm_add_r	arm_rot_r	elbow_flex_r	pro_sup_r	arm_flex_l	arm_add_l	arm_rot_l	elbow_flex_l	pro_sup_l
      2.71666670	    -45.13971853	     27.00725550	      5.14918731	     -0.12154626	      1.06625634	      0.00557169	     92.13895792	    -22.08924964	     17.89227877	     48.89792321	      0.85342976	      3.69104767	    -23.63048925	     -7.49999987	     78.97002191	     17.94106893	    -20.85143992	     36.43415938	      0.63589604	      0.70543462	    -13.52008946	     -7.49999987	    -40.83046535	     23.21601895	     20.71674903	     57.40722039	    -40.13065360	     82.15570731	      8.32456479	     35.97106080	      4.61948783	    -18.68325497	     58.53678189	     49.02180651	     56.13667391
      2.73333330	    -45.19565016	     27.04745499	      5.75719264	     -0.11905272	      1.06702080	      0.00606054	     91.90743650	    -22.68432086	     18.11488150	     48.98520844	      0.85495317	      3.46596868	    -24.61938195	     -7.49999987	     78.77844446	     18.59689599	    -20.37080327	     36.08315241	      0.62976981	      0.49997737	    -13.61755458	     -7.49999987	    -40.41349136	     23.14252537	     21.64125584	     55.93952582	    -41.49284632	     81.85482439	      8.10836913	     34.83227282	      6.42128325	    -18.37340466	     61.66031788	     47.41869510	     56.43930899
      2.75000000	    -44.87767796	     27.29704119	      5.60006107	     -0.11844737	      1.06696079	      0.00687686	     91.54862830	    -22.71318455	     18.25339094	     48.94685601	      0.85428380	      3.64959674	    -24.77898159	     -7.49999987	     78.44414316	     18.69682014	    -20.42005841	     36.07839144	      0.62968672	      0.63220645	    -13.55561336	     -7.49999987	    -40.87197072	     22.70003096	     21.64323531	     56.14555534	    -41.52427315	     81.38410844	      7.96319344	     36.16911068	      6.43681967	    -18.58332045	     61.34494273	     47.82460429	     56.56634294
      2.76666670	    -44.63520322	     27.39565733	      5.18732317	     -0.12183838	      1.06777855	      0.00668907	     91.41827227	    -22.39833926	     18.22015962	     48.83291502	      0.85229515	      3.65487927	    -24.44411729	     -7.49999987	     78.36517034	     18.48324239	    -20.30034170	     36.42911641	      0.63580803	      1.04415299	    -13.19216918	     -7.49999987	    -41.45727132	     22.47267147	     21.92396089	     56.97603536	    -41.55296784	     81.17162776	      7.86818333	     37.19972588	      6.45117065	    -18.77104432	     61.19235631	     48.52619671	     56.72528535
      2.78333330	    -44.51112666	     27.52395327	      5.08874390	     -0.11997113	      1.06861715	      0.00415083	     91.44593912	    -22.46406929	     18.45719382	     48.90149806	      0.85349215	      3.18252663	    -24.51196349	     -7.49999987	     78.08628728	     18.60186042	    -20.53162553	     36.32256186	      0.63394830	      0.51022878	    -13.50593584	     -7.49999987	    -41.60991635	     22.27089677	     22.02580484	     57.37065021	    -41.68562871	     81.24962189	      7.45984521	     37.42396836	      6.66595409	    -18.45253984	     61.17640307	     48.09900109	     56.76962755
      2.80000000	    -45.05702763	     27.45620110	      4.93699436	     -0.11897257	      1.06902050	      0.00387666	     91.88446110	    -22.10104175	     18.57951861	     48.66283340	      0.84932667	      3.19406559	    -24.11155828	     -7.49999987	     78.52332790	     18.42403539	    -20.34227212	     36.33556311	      0.63417521	      1.08151865	    -13.16148618	     -7.49999987	    -41.78261091	     21.98110592	     22.02437748	     58.73069374	    -41.01711291	     89.97744130	      5.93719308	     29.11771508	      6.13682154	    -18.31063097	     60.14027807	     48.34872591	     57.87869790
      2.81666670	    -45.20739407	     27.40649847	      5.03050166	     -0.11389856	      1.06701429	      0.00369306	     91.79416319	    -22.17216437	     18.60768700	     48.70406973	      0.85004638	      3.34970427	    -24.15329826	     -7.49999987	     78.38179355	     18.50010164	    -20.32142276	     36.32323480	      0.63396004	      1.09432718	    -13.18292722	     -7.49999987	    -41.76768645	     21.96400503	     22.05022655	     58.88106688	    -41.15324285	     89.96939446	      5.86387797	     29.11309107	      6.10391526	    -18.12769434	     60.17162081	     48.39017676	     57.88061110
      2.83333330	    -45.33632191	     27.22833451	      5.01498729	     -0.11255534	      1.06696236	      0.00478930	     91.44284091	    -22.30318664	     18.28422397	     48.49163350	      0.84633866	      4.54492326	    -23.30616220	     -7.49999987	     78.09163719	     18.61101805	    -19.97206715	     36.19404738	      0.63170530	      1.53524059	    -13.01520137	     -7.49999987	    -42.15449757	     22.07494213	     22.39846650	     59.44037592	    -41.38184809	     89.80219827	      5.66943242	     29.82395407	      6.04422845	    -17.62428303	     60.06739424	     47.90974087	     57.90521929
